<svg xmlns="http://www.w3.org/2000/svg" viewBox="0 0 100 100" width="100" height="100">
  <path d="M50 15C33.43 15 20 28.43 20 45C20 54 24.5 61 31 66L33 80C33 82.76 35.24 85 38 85H62C64.76 85 67 82.76 67 80L69 66C75.5 61 80 54 80 45C80 28.43 66.57 15 50 15Z" fill="none" stroke="#111827" stroke-width="6" stroke-linecap="round" stroke-linejoin="round"/>
  <circle cx="38" cy="48" r="6" fill="none" stroke="#111827" stroke-width="5"/>
  <circle cx="62" cy="48" r="6" fill="none" stroke="#111827" stroke-width="5"/>
  <path d="M50 56L46 62H54L50 56Z" fill="#111827"/>
  <path d="M44 76V85" fill="none" stroke="#111827" stroke-width="4" stroke-linecap="round"/>
  <path d="M50 76V85" fill="none" stroke="#111827" stroke-width="4" stroke-linecap="round"/>
  <path d="M56 76V85" fill="none" stroke="#111827" stroke-width="4" stroke-linecap="round"/>
</svg>
